<?xml version="1.0" standalone="no"?>
<!DOCTYPE svg PUBLIC "-//W3C//DTD SVG 20010904//EN"
 "http://www.w3.org/TR/2001/REC-SVG-20010904/DTD/svg10.dtd">
<svg version="1.0" xmlns="http://www.w3.org/2000/svg"
 width="1265.000000pt" height="1280.000000pt" viewBox="0 0 1265.000000 1280.000000"
 preserveAspectRatio="xMidYMid meet">
<metadata>
Created by potrace 1.15, written by Peter Selinger 2001-2017
</metadata>
<g transform="translate(0.000000,1280.000000) scale(0.100000,-0.100000)"
fill="#000000" stroke="none">
<path d="M475 12785 c-205 -45 -372 -196 -447 -405 l-23 -65 -3 -4368 c-2
-4842 -8 -4439 64 -4587 49 -99 170 -222 264 -267 138 -67 10 -63 1882 -63
934 0 1698 -3 1698 -8 0 -17 -271 -899 -282 -917 -98 -164 -355 -610 -369
-640 -17 -36 -19 -69 -19 -298 0 -288 3 -303 68 -370 36 -38 87 -69 147 -91
21 -7 444 -13 1370 -18 1624 -10 1375 -10 3005 -1 l1345 8 61 28 c34 16 80 47
102 70 71 73 74 88 73 370 -1 136 -6 258 -10 270 -5 12 -92 159 -195 326 -102
167 -186 311 -186 320 -1 9 -65 223 -144 476 -79 253 -142 463 -139 467 2 5
768 8 1701 8 1872 0 1744 -4 1882 63 95 46 216 169 264 267 72 148 66 -255 64
4587 l-3 4368 -27 74 c-65 178 -201 314 -378 379 l-75 27 -5815 2 c-4777 1
-5826 -1 -5875 -12z"/>
</g>
</svg>
